G04 DipTrace 4.3.0.5*
G04 Gerber_BottomSolderMaskLayer.GBS*
%MOIN*%
G04 #@! TF.FileFunction,Soldermask,Bot*
G04 #@! TF.Part,Single*
%ADD14C,0.06*%
%ADD20R,0.06X0.06*%
%ADD21C,0.06*%
%ADD22R,0.093699X0.168699*%
%ADD24R,0.07X0.07*%
%ADD25C,0.07*%
%ADD26C,0.1*%
%ADD47R,0.066929X0.066929*%
%ADD49C,0.066929*%
%FSLAX26Y26*%
G04*
G70*
G90*
G75*
G01*
G04 BotMask*
%LPD*%
D49*
X2233700Y1433700D3*
D47*
X2033700Y1433694D3*
D49*
X2233700Y1128700D3*
D47*
X2033700D3*
D20*
X2043700Y1728700D3*
D14*
X2143700D3*
D20*
X2493700Y823700D3*
D21*
X2593700D3*
X2693700D3*
X2793700D3*
X2893700D3*
D20*
X2493700Y588700D3*
D14*
X2593700D3*
D20*
X2793700D3*
D14*
X2893700D3*
D26*
X4153700Y2653700D3*
Y483700D3*
X483700D3*
Y2653700D3*
D20*
X3163700Y1263700D3*
D21*
X3263700D3*
X3363700D3*
X3463700D3*
D20*
X3163700Y1083700D3*
D21*
X3263700D3*
X3363700D3*
X3463700D3*
D20*
X3163700Y903700D3*
D21*
X3263700D3*
X3363700D3*
X3463700D3*
D20*
X3163700Y723700D3*
D21*
X3263700D3*
X3363700D3*
X3463700D3*
D20*
X3123700Y2563700D3*
D21*
X3223700D3*
X3323700D3*
X3423700D3*
D20*
X583700Y693700D3*
D21*
X683700D3*
X783700D3*
D20*
X2503700Y2563700D3*
D14*
X2603700D3*
D22*
X1333700Y633700D3*
X1137700D3*
X1733700D3*
X1537700D3*
X2133700D3*
X1937700D3*
D20*
X583700Y2473700D3*
D21*
X683700D3*
X783700D3*
D20*
X583700Y2293700D3*
D21*
X683700D3*
X783700D3*
D20*
X583700Y2113700D3*
D21*
X683700D3*
X783700D3*
D20*
X583700Y1933700D3*
D21*
X683700D3*
X783700D3*
D20*
X583700Y1753700D3*
D21*
X683700D3*
X783700D3*
D20*
X583700Y1573700D3*
D21*
X683700D3*
X783700D3*
D20*
X583700Y1393700D3*
D21*
X683700D3*
X783700D3*
D20*
X2813700Y2563700D3*
D14*
X2913700D3*
D20*
X583700Y1133700D3*
D21*
X683700D3*
X783700D3*
D20*
X583700Y953700D3*
D21*
X683700D3*
X783700D3*
D20*
X3693700Y1263700D3*
D21*
X3793700D3*
X3893700D3*
X3993700D3*
D20*
X3693700Y1083700D3*
D21*
X3793700D3*
X3893700D3*
X3993700D3*
D20*
X3693700Y903700D3*
D21*
X3793700D3*
X3893700D3*
X3993700D3*
D20*
X3693700Y723700D3*
D21*
X3793700D3*
X3893700D3*
X3993700D3*
D24*
X2503700Y1733700D3*
D25*
X2603700D3*
X2703700D3*
X2803700D3*
X2903700D3*
X3003700D3*
X3103700D3*
X3203700D3*
X3303700D3*
X3403700D3*
X3503700D3*
X3603700D3*
X3703700D3*
X3803700D3*
X3903700D3*
X2503700Y2333700D3*
X2603700D3*
X2703700D3*
X2803700D3*
X2903700D3*
X3003700D3*
X3103700D3*
X3203700D3*
X3303700D3*
X3403700D3*
X3503700D3*
X3603700D3*
X3703700D3*
X3803700D3*
X3903700D3*
D21*
X2123705Y2133700D3*
Y2233700D3*
Y2333700D3*
Y2433700D3*
X2223705D3*
Y2333700D3*
Y2233700D3*
Y2133700D3*
D20*
X1178700Y2138700D3*
D21*
X1078700Y2138690D3*
X978700Y2138680D3*
X1083700Y1128700D3*
X1183700D3*
X1283700D3*
X1383700D3*
X1483700D3*
X1583700D3*
X1683700D3*
X1783700D3*
Y1728700D3*
X1683700D3*
X1583700D3*
X1483700D3*
X1383700D3*
X1283700D3*
X1183700D3*
X1083700D3*
X2893700Y1483695D3*
X2793700D3*
X2693700D3*
X2593700D3*
D20*
X2493700D3*
M02*
