M48
INCH
T01C0.02
T02C0.0354
T03C0.036
T04C0.0552
T05C0.1
%
T01
X+041287Y+011727
X+041287Y+008137
X+038666Y+014287
X+038637Y+015437
X+033037Y+018837
X+032037Y+019437
X+031037Y+020087
X+024537Y+020787
X+023937Y+020787
X+022487Y+017337
X+017087Y+020037
X+017087Y+022937
X+014137Y+025237
X+014937Y+026037
X+012787Y+019987
X+014087Y+010437
X+014787Y+010437
X+024937Y+009937
X+039637Y+024037
T02
X+022337Y+014337
X+020337Y+014337
X+020337Y+011287
X+022337Y+011287
T03
X+020437Y+017287
X+021437Y+017287
X+017837Y+017287
X+016837Y+017287
X+015837Y+017287
X+014837Y+017287
X+013837Y+017287
X+012837Y+017287
X+011837Y+017287
X+010837Y+017287
X+007837Y+017537
X+006837Y+017537
X+005837Y+017537
X+005837Y+019337
X+006837Y+019337
X+007837Y+019337
X+007837Y+021137
X+006837Y+021137
X+005837Y+021137
X+005837Y+022937
X+006837Y+022937
X+007837Y+022937
X+007837Y+024737
X+006837Y+024737
X+005837Y+024737
X+009787Y+021387
X+010787Y+021387
X+011787Y+021387
X+007837Y+015737
X+006837Y+015737
X+005837Y+015737
X+005837Y+013937
X+006837Y+013937
X+007837Y+013937
X+007837Y+011337
X+006837Y+011337
X+005837Y+011337
X+005837Y+009537
X+006837Y+009537
X+007837Y+009537
X+007837Y+006937
X+006837Y+006937
X+005837Y+006937
X+010837Y+011287
X+011837Y+011287
X+012837Y+011287
X+013837Y+011287
X+014837Y+011287
X+015837Y+011287
X+016837Y+011287
X+017837Y+011287
X+024937Y+008237
X+025937Y+008237
X+026937Y+008237
X+027937Y+008237
X+028937Y+008237
X+028937Y+005887
X+027937Y+005887
X+025937Y+005887
X+024937Y+005887
X+031637Y+007237
X+032637Y+007237
X+033637Y+007237
X+034637Y+007237
X+034637Y+009037
X+033637Y+009037
X+032637Y+009037
X+031637Y+009037
X+031637Y+010837
X+032637Y+010837
X+033637Y+010837
X+034637Y+010837
X+034637Y+012637
X+033637Y+012637
X+032637Y+012637
X+031637Y+012637
X+028937Y+014837
X+027937Y+014837
X+026937Y+014837
X+025937Y+014837
X+024937Y+014837
X+025037Y+017337
X+026037Y+017337
X+027037Y+017337
X+028037Y+017337
X+029037Y+017337
X+030037Y+017337
X+031037Y+017337
X+032037Y+017337
X+033037Y+017337
X+034037Y+017337
X+035037Y+017337
X+036037Y+017337
X+037037Y+017337
X+038037Y+017337
X+039037Y+017337
X+038937Y+012637
X+039937Y+012637
X+039937Y+010837
X+038937Y+010837
X+037937Y+010837
X+036937Y+010837
X+036937Y+009037
X+037937Y+009037
X+038937Y+009037
X+039937Y+009037
X+039937Y+007237
X+038937Y+007237
X+037937Y+007237
X+036937Y+007237
X+036937Y+012637
X+037937Y+012637
X+038037Y+023337
X+039037Y+023337
X+037037Y+023337
X+036037Y+023337
X+035037Y+023337
X+034037Y+023337
X+033037Y+023337
X+032037Y+023337
X+031037Y+023337
X+030037Y+023337
X+029037Y+023337
X+028037Y+023337
X+027037Y+023337
X+026037Y+023337
X+025037Y+023337
X+025037Y+025637
X+026037Y+025637
X+028137Y+025637
X+029137Y+025637
X+031237Y+025637
X+032237Y+025637
X+033237Y+025637
X+034237Y+025637
X+022237Y+024337
X+022237Y+023337
X+022237Y+022337
X+021237Y+022337
X+021237Y+021337
X+022237Y+021337
X+021237Y+023337
X+021237Y+024337
T04
X+013337Y+006337
X+011377Y+006337
X+015377Y+006337
X+017337Y+006337
X+019377Y+006337
X+021337Y+006337
T05
X+041537Y+026537
X+041537Y+004837
X+004837Y+004837
X+004837Y+026537
T00
M30
